{"title":"Flight World War II 2015 720p BluRay","uid":12539907,"size":1107498626,"categoryP":"video","categoryS":"hd___movies","magnet":"?xt=urn:btih:df18884a9164b11bb37c361a17717a92efb66edc&amp;dn=Flight+World+War+II+2015+720p+BluRay&amp;tr=udp%3A%2F%2Ftracker.leechers-paradise.org%3A6969&amp;tr=udp%3A%2F%2Fzer0day.ch%3A1337&amp;tr=udp%3A%2F%2Fopen.demonii.com%3A1337&amp;tr=udp%3A%2F%2Ftracker.coppersurfer.tk%3A6969&amp;tr=udp%3A%2F%2Fexodus.desync.com%3A6969","seeders":0,"leechers":1,"uploader":"Joker__TPB","files":4,"time":1444383681,"description":"=================================================================\r\nFlight 42 was on its way| when it comes across an unidentifiable storm. Realizing they must go through| find themselves in France| 1940| World war II. A young\r\nsoldier (Robbie Kay) tells them they are in the middle of a war zone. Dodging bullets and bombs the flight will attempt to make it back to modern day| without\r\nchanging history too much.\r\n=================================================================\r\nscreens: \nhttp://extraimago.com/image/3jv \nhttp://extraimago.com/image/3jA \nhttp://extraimago.com/image/3jW \nhttp://extraimago.com/image/3jf\r\n=================================================================\r\nmedia info:\r\n\r\nVideo\r\nID                                       : 1\r\nFormat                                   : AVC\r\nFormat/Info                              : Advanced Video Codec\r\nFormat profile                           :   \r\nFormat settings, CABAC                   : Yes\r\nFormat settings, ReFrames                : 4 frames\r\nCodec ID                                 : avc1\r\nCodec ID/Info                            : Advanced Video Coding\r\nDuration                                 : 1h 25mn\r\nBit rate                                 : 1 500 Kbps\r\nWidth                                    : 1 280 pixels\r\nHeight                                   : 720 pixels\r\nDisplay aspect ratio                     : 16:9\r\nFrame rate mode                          : Constant\r\nFrame rate                               : 23.976 fps\r\nColor space                              : YUV\r\nChroma subsampling                       : 4:2:0\r\nBit depth                                : 8 bits\r\nScan type                                : Progressive\r\nBits/(Pixel*Frame)                       : 0.068\r\nStream size                              : 915 MiB (87%)\r\nWriting library                          : x264 core 148 r2597M e86f3a1\r\nEncoding settings                        : cabac=1 / ref=4 / deblock=1:-1:-1 / analyse=0x3:0x113 / me=umh / subme=9 / psy=1 / psy_rd=1.00:0.15 / mixed_ref=1 / me_range=24 / chroma_me=1 / trellis=2 / 8x8dct=1 / cqm=0 / deadzone=21,11 / fast_pskip=1 / chroma_qp_offset=-3 / threads=32 / lookahead_threads=4 / sliced_threads=0 / nr=0 / decimate=1 / interlaced=0 / bluray_compat=0 / constrained_intra=0 / bframes=3 / b_pyramid=2 / b_adapt=1 / b_bias=0 / direct=1 / weightb=1 / open_gop=0 / weightp=2 / keyint=250 / keyint_min=25 / scenecut=40 / intra_refresh=0 / rc_lookahead=50 / rc=2pass / mbtree=1 / bitrate=1500 / ratetol=1.0 / qcomp=0.60 / qpmin=0 / qpmax=69 / qpstep=4 / cplxblur=20.0 / qblur=0.5 / vbv_maxrate=31250 / vbv_bufsize=31250 / nal_hrd=none / filler=0 / ip_ratio=1.40 / aq=3:1.00\r\nEncoded date                             : UTC 1904-01-01 00:00:00\r\nTagged date                              : UTC 1904-01-01 00:00:00\r\n\r\nAudio\r\nID                                       : 2\r\nFormat                                   : AAC\r\nFormat/Info                              : Advanced Audio Codec\r\nFormat profile                           : LC\r\nCodec ID                                 : 40\r\nDuration                                 : 1h 25mn\r\nBit rate mode                            : Constant\r\nBit rate                                 : 224 Kbps\r\nChannel(s)                               : 2 channels\r\nChannel(s)_Original                      : 6 channels\r\nChannel positions                        : Front: L C R, Side: L R, LFE\r\nSampling rate                            : 48.0 KHz\r\nCompression mode                         : Lossy\r\nStream size                              : 137 MiB (13%)\r\nLanguage                                 : English\r\nEncoded date                             : UTC 1904-01-01 00:00:00\r\nTagged date                              : UTC 1904-01-01 00:00:00\r\n\r\nMenu #1\r\nID                                       : 3\r\nCodec ID                                 : text\r\nDuration                                 : 1h 25mn\r\nLanguage                                 : English\r\nEncoded date                             : UTC 1904-01-01 00:00:00\r\nTagged date                              : UTC 1904-01-01 00:00:00\r\nBit rate mode                            : CBR\r\n00:00:00.000                             : 00:00:00.000\r\n00:05:55.607                             : 00:05:55.564\r\n00:12:50.646                             : 00:12:50.603\r\n00:20:20.220                             : 00:20:20.177\r\n00:25:55.806                             : 00:25:55.763\r\n00:32:33.328                             : 00:32:33.285\r\n00:40:12.912                             : 00:40:12.869\r\n00:45:34.441                             : 00:45:34.398\r\n00:52:44.246                             : 00:52:44.203\r\n00:58:55.408                             : 00:58:55.365\r\n01:05:14.871                             : 01:05:14.828\r\n01:10:16.046                             : 01:10:16.003\r\n\r\nMenu #2\r\n00:00:00.043                             : 00:00:00.000\r\n00:05:55.607                             : 00:05:55.564\r\n00:12:50.646                             : 00:12:50.603\r\n00:20:20.220                             : 00:20:20.177\r\n00:25:55.806                             : 00:25:55.763\r\n00:32:33.328                             : 00:32:33.285\r\n00:40:12.912                             : 00:40:12.869\r\n00:45:34.441                             : 00:45:34.398\r\n00:52:44.246                             : 00:52:44.203\r\n00:58:55.408                             : 00:58:55.365\r\n01:05:14.871                             : 01:05:14.828\r\n01:10:16.046                             : 01:10:16.003\r\n\r\n=================================================================","torrent":{"xt":"urn:btih:df18884a9164b11bb37c361a17717a92efb66edc","amp;dn":"Flight+World+War+II+2015+720p+BluRay","amp;tr":["udp%3A%2F%2Ftracker.leechers-paradise.org%3A6969","udp%3A%2F%2Fzer0day.ch%3A1337","udp%3A%2F%2Fopen.demonii.com%3A1337","udp%3A%2F%2Ftracker.coppersurfer.tk%3A6969","udp%3A%2F%2Fexodus.desync.com%3A6969"],"infoHash":"df18884a9164b11bb37c361a17717a92efb66edc","infoHashBuffer":{"type":"Buffer","data":[223,24,136,74,145,100,177,27,179,124,54,26,23,113,122,146,239,182,110,220]},"announce":[],"urlList":[]}}